<svg xmlns="http://www.w3.org/2000/svg" width="146.32" height="85.51" viewBox="0 0 146.32 85.51"><defs><style>.cls-4{fill:#fff;}</style></defs><title>icon3</title><g id="Layer_2" data-name="Layer 2"><path class="cls-4" d="M111,24.17c-4.2.15-8.4.3-12.58.56-4,.24-9.74,1-13.72.08.91-.56,3.67-.93,4.62-1.13,2.78-.55,5.58-1,8.34-1.67,8.4-2,16.76-4.16,25.16-6.16.41-.1.83-.19,1.25-.27-.3-.34-.61-.69-.92-1-5.29,1.28-10.6,2.53-15.88,3.87-4.51,1.15-9,2.57-13.5,3.6-3.18.72-6.46,1-9.7,1.45a2.09,2.09,0,0,1,1.36-1.28q9.72-3.7,19.47-7.35L119.61,9.4c-.24-.38-.49-.76-.75-1.13-10.69,4.5-21.51,8.66-32.52,12.34-.75.25-2.89,1.35-3.66,1.51.61-1,18.59-11.78,26.25-16,2-1.12,4.07-2.21,6.13-3.29-.17-.25-.33-.51-.5-.77L99.18,10.58,87.1,17.32l-6,3.33c-.68.39-5.21,3.49-5.74,3.2-1.69-.92-3.43-1.78-5.09-2.79-5.54-3.36-11-7.7-16.54-11C49.56,7.56,42.07,3.3,36.44.06c-.22.38-.43.77-.64,1.16L38,2.43C44.12,6.12,50.27,9.8,56.3,13.63c4,2.58,9,5.77,12.9,8.49-.14.27-22.88-8.82-29.64-11.22-2.44-.86-4.83-1.84-7.21-2.85-.17.38-.34.75-.49,1.14l.35.14C38.65,11.9,45.13,14.39,51.55,17c1.81.74,11.89,4.82,13.61,5.77-4-.67-15.61-2.62-19-3.12-2-.29-4.06-.52-6.1-.76-3.87-.46-7.76-.85-11.62-1.4-.24.52-.49,1-.75,1.53,1.39.25,2.78.42,4,.57,5.63.71,11.29,1.11,16.91,1.76A148.63,148.63,0,0,1,65.88,25c-13.56,1.14-26.32-.89-39.78.46.23,2.08.27,5.14.46,6.85l32.71-.41c10.65-.13,21.3.16,32-.07s21.48.27,32.39.46c-.08-3-.15-5.66-.23-8.49C119.08,23.94,115,24,111,24.17ZM69.53,30.5c-11.35.16-22.69.21-34,.32-2.26,0-4.52.12-6.66.17-.69-2.82,0-4.16,0-4.16s7.94-.31,11.33-.37c10.1-.19,20.21-.19,30.31-.25.55,0,1.1.08,1.89.13C72.75,30.06,72.55,30.46,69.53,30.5Zm52.22-.31c-2.42.13-4.65.38-6.87.35-8.18-.11-16.36-.35-24.55-.46-2.82,0-5.64.13-8.79.22,0-1.13-.06-2.29-.1-3.68,13.44,0,26.72-2.3,40.44-.46C121.88,27.32,121.79,28.52,121.75,30.19Z" transform="translate(0 -0.06)"></path><path class="cls-4" d="M12.05,62.65a4.24,4.24,0,0,1-1.68,3,6.18,6.18,0,0,1-3.86,1.12H0l.1-.86a.43.43,0,0,1,.36-.38l1.16-.21L3,53.89l-1.14-.26c-.2,0-.26-.18-.24-.38l.1-.84h6q3.84,0,4.5,2.16a3.31,3.31,0,0,1,.12,1.4,4.15,4.15,0,0,1-.3,1.2,3.7,3.7,0,0,1-.62.9,4.83,4.83,0,0,1-2.18,1.3C11.35,59.79,12.27,60.87,12.05,62.65Zm-2.22,1a3.16,3.16,0,0,0,.32-1,1.9,1.9,0,0,0-.58-1.77,3.27,3.27,0,0,0-2.28-.64H4.18l-.62,5H6.67c1.6,0,2.64-.54,3.21-1.58ZM4.36,58.81H6.93c1.6,0,2.64-.48,3.16-1.44a2.73,2.73,0,0,0,.32-1,2,2,0,0,0-.53-1.84,3.48,3.48,0,0,0-2.28-.6H5Z" transform="translate(0 -0.06)"></path><path class="cls-4" d="M31.05,62.53a8.19,8.19,0,0,1-1.72,2.33,7.63,7.63,0,0,1-2.45,1.46,8.09,8.09,0,0,1-3,.54,6.92,6.92,0,0,1-2.8-.54,5.39,5.39,0,0,1-3.2-3.79,8,8,0,0,1-.14-3,8.79,8.79,0,0,1,.88-3,8.17,8.17,0,0,1,1.76-2.21A7.85,7.85,0,0,1,22.8,52.8a8,8,0,0,1,2.94-.52,7,7,0,0,1,2.83.52,5.64,5.64,0,0,1,2,1.52,5.84,5.84,0,0,1,1.16,2.32,8,8,0,0,1,.16,3A8.89,8.89,0,0,1,31.05,62.53Zm-1.17-5.32a4.35,4.35,0,0,0-.8-1.78,3.79,3.79,0,0,0-1.49-1.11,5,5,0,0,0-2.05-.38,5.79,5.79,0,0,0-2.14.38,5.41,5.41,0,0,0-1.74,1.12,5.82,5.82,0,0,0-1.24,1.78,7.76,7.76,0,0,0-.66,2.36,7.14,7.14,0,0,0,.12,2.35,4.39,4.39,0,0,0,.8,1.79,3.77,3.77,0,0,0,1.46,1.1,5.18,5.18,0,0,0,2.06.4,5.81,5.81,0,0,0,2.14-.4,5.24,5.24,0,0,0,1.75-1.1,5.86,5.86,0,0,0,1.24-1.79A7.73,7.73,0,0,0,30,59.57,7.19,7.19,0,0,0,29.88,57.21Z" transform="translate(0 -0.06)"></path><path class="cls-4" d="M50.63,62.53a8,8,0,0,1-1.75,2.33,7.58,7.58,0,0,1-2.4,1.46,8.09,8.09,0,0,1-3,.54,6.92,6.92,0,0,1-2.8-.54,5.42,5.42,0,0,1-3.22-3.83,8,8,0,0,1-.14-3,8.79,8.79,0,0,1,.88-3A8.19,8.19,0,0,1,40,54.32a7.85,7.85,0,0,1,2.42-1.52,8,8,0,0,1,2.94-.52,7,7,0,0,1,2.83.52,5.64,5.64,0,0,1,2,1.52,5.84,5.84,0,0,1,1.16,2.32,8,8,0,0,1,.16,3A8.89,8.89,0,0,1,50.63,62.53Zm-1.18-5.32a4.35,4.35,0,0,0-.8-1.78,3.69,3.69,0,0,0-1.48-1.11,5,5,0,0,0-2-.38,5.65,5.65,0,0,0-2.19.38,5.41,5.41,0,0,0-1.74,1.12A5.82,5.82,0,0,0,40,57.22a7.76,7.76,0,0,0-.66,2.36,6.93,6.93,0,0,0,.08,2.36,4.39,4.39,0,0,0,.8,1.79,3.77,3.77,0,0,0,1.46,1.1,5.18,5.18,0,0,0,2.06.4,5.81,5.81,0,0,0,2.14-.41,5.34,5.34,0,0,0,1.75-1.1,5.72,5.72,0,0,0,1.25-1.79,7.73,7.73,0,0,0,.64-2.36A6.93,6.93,0,0,0,49.45,57.21Z" transform="translate(0 -0.06)"></path><path class="cls-4" d="M68.88,65.94l-.1.8H64l.1-.8a.37.37,0,0,1,.32-.36l.94-.16-3.56-4.79a.91.91,0,0,0-.56-.42H59.88l-.64,5.11,1.12.22a.31.31,0,0,1,.27.35v0l-.1.86H55.7l.1-.86a.43.43,0,0,1,.36-.38l1.16-.22,1.4-11.43-1.12-.22c-.2,0-.26-.18-.24-.38l.1-.84h4.82l-.1.84a.4.4,0,0,1-.36.38c-.62.12-1,.2-1.16.22l-.6,4.84h.72a1.48,1.48,0,0,0,1.1-.48l4.59-4.52-.87-.18c-.18,0-.24-.14-.22-.34l.08-.8H70l-.06.76a.38.38,0,0,1-.34.36c-.12,0-.44.12-1,.24l-4.87,4.8a3.16,3.16,0,0,1-.86.64,1.89,1.89,0,0,1,.84.72l3.89,5.39,1,.22a.31.31,0,0,1,.3.32A.25.25,0,0,1,68.88,65.94Z" transform="translate(0 -0.06)"></path><path class="cls-4" d="M91.25,62.38a4.89,4.89,0,0,1-1.64,3.2,5.46,5.46,0,0,1-3.73,1.32,11.5,11.5,0,0,1-1.94-.2,11.83,11.83,0,0,1-1.56-.38l-.56-.2.46-3.61h1a.33.33,0,0,1,.35.31v1.91a7,7,0,0,0,2.25.59,5.07,5.07,0,0,0,1.5-.2,2.7,2.7,0,0,0,1-.54,2.85,2.85,0,0,0,1-1.91,1.68,1.68,0,0,0-.84-1.76,6.13,6.13,0,0,0-1-.48c-1.22-.4-2-.68-2.42-.86a3.47,3.47,0,0,1-1-.7,3.05,3.05,0,0,1-.74-2.68,4.23,4.23,0,0,1,1.5-2.74,4.92,4.92,0,0,1,3.34-1.2,10,10,0,0,1,3.92.8l-.47,3.27h-1a.32.32,0,0,1-.36-.28V54.2a7.8,7.8,0,0,0-2.3-.38,3.12,3.12,0,0,0-2.06.64,2.35,2.35,0,0,0-.88,1.6A1.65,1.65,0,0,0,86,57.72a5.49,5.49,0,0,0,1,.5q1.74.6,2.4.9A2.91,2.91,0,0,1,91.25,62.38Z" transform="translate(0 -0.06)"></path><path class="cls-4" d="M110.49,53.85l-1.4,11.47c.64.12,1,.2,1.18.24s.22.16.2.36l-.12.86H105.5l.13-.86a.41.41,0,0,1,.34-.38l1.16-.22.64-5.07H100l-.64,5.07q1.41.3,1.38.6l-.12.86H95.88l.1-.86a.43.43,0,0,1,.36-.38l1.12-.22,1.42-11.47-1.18-.24c-.16,0-.2-.16-.18-.36l.1-.84h4.82l-.1.84a.34.34,0,0,1-.26.36l-1.24.24-.62,4.94H108l.62-4.94-1.18-.24c-.16,0-.22-.16-.2-.36l.1-.84h4.84l-.1.84a.4.4,0,0,1-.36.38Z" transform="translate(0 -0.06)"></path><path class="cls-4" d="M129.23,62.53a8.19,8.19,0,0,1-1.72,2.33,7.72,7.72,0,0,1-2.43,1.46,8.09,8.09,0,0,1-3,.54,6.92,6.92,0,0,1-2.8-.54,5.42,5.42,0,0,1-3.22-3.83,8,8,0,0,1-.14-3,8.79,8.79,0,0,1,.88-3,8.19,8.19,0,0,1,1.76-2.17A7.85,7.85,0,0,1,121,52.8a8,8,0,0,1,2.94-.52,7,7,0,0,1,2.83.52,5.64,5.64,0,0,1,2,1.52,5.84,5.84,0,0,1,1.16,2.32,8,8,0,0,1,.16,3A8.89,8.89,0,0,1,129.23,62.53Zm-1.18-5.32a4.35,4.35,0,0,0-.8-1.78,3.69,3.69,0,0,0-1.48-1.11,5,5,0,0,0-2-.38,5.79,5.79,0,0,0-2.14.38,5.27,5.27,0,0,0-1.75,1.11,5.82,5.82,0,0,0-1.24,1.78,7.76,7.76,0,0,0-.66,2.36,6.93,6.93,0,0,0,.08,2.36,4.39,4.39,0,0,0,.8,1.79,3.77,3.77,0,0,0,1.46,1.1,5.18,5.18,0,0,0,2.06.4,5.81,5.81,0,0,0,2.14-.4,5,5,0,0,0,1.74-1.1,5.72,5.72,0,0,0,1.25-1.79,7.73,7.73,0,0,0,.64-2.36,6.93,6.93,0,0,0-.1-2.36Z" transform="translate(0 -0.06)"></path><path class="cls-4" d="M146.27,56.85a4.66,4.66,0,0,1-1.77,3.24,6.47,6.47,0,0,1-4.14,1.28h-2l-.48,3.95c.12,0,.5.12,1.12.24.2,0,.26.16.24.36l-.1.86h-4.8l.1-.86a.38.38,0,0,1,.34-.36l1.1-.24,1.42-11.41c-.62-.12-1-.22-1.12-.24a.31.31,0,0,1-.27-.35v0l.1-.84h5.4a8.11,8.11,0,0,1,2.35.3C145.71,53.32,146.53,54.73,146.27,56.85Zm-2.53-2.16a3.28,3.28,0,0,0-2.46-.76h-2l-.74,5.9h2a4,4,0,0,0,2.6-.82,3.29,3.29,0,0,0,1.17-2.18A2.43,2.43,0,0,0,143.74,54.69Z" transform="translate(0 -0.06)"></path><path class="cls-4" d="M48.36,85.1V80.64a.41.41,0,0,1,.4-.42h2.48a.42.42,0,1,1,0,.84h-2v1.39H51a.43.43,0,0,1,.41.41.42.42,0,0,1-.41.43H49.19v1.39h2a.42.42,0,1,1,0,.84h-2.4a.41.41,0,0,1-.43-.39Z" transform="translate(0 -0.06)"></path><path class="cls-4" d="M55,84.2a.38.38,0,0,1,.54,0h0a2.45,2.45,0,0,0,1.44.58,1.61,1.61,0,0,0,1-.28.68.68,0,0,0,.32-.54.54.54,0,0,0-.06-.25.8.8,0,0,0-.23-.22,3,3,0,0,0-1-.36h0a5,5,0,0,1-1-.29,1.74,1.74,0,0,1-.7-.59,1.23,1.23,0,0,1-.17-.62,1.38,1.38,0,0,1,.6-1.11,2.35,2.35,0,0,1,1.31-.4,3,3,0,0,1,1.65.61.38.38,0,0,1,.1.53h0a.37.37,0,0,1-.51.14l0,0A2.26,2.26,0,0,0,57,80.89a1.52,1.52,0,0,0-.85.26.59.59,0,0,0-.29.48.39.39,0,0,0,.06.21.64.64,0,0,0,.2.2,2.69,2.69,0,0,0,1,.33h0a3.89,3.89,0,0,1,1,.32,1.71,1.71,0,0,1,.76.62A1.25,1.25,0,0,1,59,84a1.48,1.48,0,0,1-.65,1.17,2.34,2.34,0,0,1-1.4.43A3.25,3.25,0,0,1,55,84.8a.4.4,0,0,1-.09-.54Z" transform="translate(0 -0.06)"></path><path class="cls-4" d="M65.55,81.06h-1.2v4a.41.41,0,0,1-.4.42h0a.42.42,0,0,1-.42-.42v-4H62.33a.42.42,0,0,1,0-.84h3.22a.42.42,0,0,1,0,.84Z" transform="translate(0 -0.06)"></path><path class="cls-4" d="M69.13,84.44a.59.59,0,0,1,.57.57.57.57,0,0,1-.57.56.56.56,0,0,1-.56-.56A.57.57,0,0,1,69.13,84.44Z" transform="translate(0 -0.06)"></path><path class="cls-4" d="M78.57,80.64V85.1a.44.44,0,0,1-.43.42.41.41,0,0,1-.41-.41h0V81.38l-.31.18a.42.42,0,0,1-.57-.18.41.41,0,0,1,.14-.54l.89-.52h.21v.06Z" transform="translate(0 -0.06)"></path><path class="cls-4" d="M81.81,82.05a1.84,1.84,0,0,1,3.66-.19h0v.43a4.56,4.56,0,0,1-.27,1.55,2.51,2.51,0,0,1-1,1.29,2.28,2.28,0,0,1-1.13.36.42.42,0,0,1-.44-.4h0a.43.43,0,0,1,.41-.44,1.47,1.47,0,0,0,.71-.21,1.71,1.71,0,0,0,.47-.53,1.24,1.24,0,0,0,.1-.2,1.79,1.79,0,0,1-2.51-1.66Zm.84,0a1,1,0,1,0,1-1A1,1,0,0,0,82.65,82.05Z" transform="translate(0 -0.06)"></path><path class="cls-4" d="M88.94,82.05a1.84,1.84,0,0,1,3.66-.19h0v.43a4.8,4.8,0,0,1-.26,1.55,2.62,2.62,0,0,1-1,1.29,2.28,2.28,0,0,1-1.13.36.42.42,0,0,1-.44-.4h0a.43.43,0,0,1,.41-.44,1.47,1.47,0,0,0,.71-.21,1.71,1.71,0,0,0,.47-.53,1.24,1.24,0,0,0,.1-.2,1.8,1.8,0,0,1-2.52-1.66Zm.84,0a1,1,0,1,0,1-1A1,1,0,0,0,89.78,82.05Z" transform="translate(0 -0.06)"></path><path class="cls-4" d="M99.6,83.72a1.81,1.81,0,1,1-2.81-1.51,1.25,1.25,0,1,1,2,0A1.83,1.83,0,0,1,99.6,83.72Zm-.83,0a1,1,0,1,0-1,1A1,1,0,0,0,98.77,83.72Zm-1.4-2.26a.42.42,0,1,0,.84,0h0a.43.43,0,0,0-.41-.41.42.42,0,0,0-.43.41Z" transform="translate(0 -0.06)"></path></g></svg>