<svg xmlns="http://www.w3.org/2000/svg" width="82.77" height="83" viewBox="0 0 82.77 83"><defs><style>.cls-1,.cls-2{fill:#fff;}.cls-1{fill-rule:evenodd;}</style></defs><title>icon1</title><g><path class="cls-1" d="M41.92,47.11c.72-6,4.54-11.64,8.22-13.47a24.09,24.09,0,0,1-4.64-11.2H37.31a24.33,24.33,0,0,1-4.66,11.2c3.68,1.83,7.52,7.44,8.24,13.47V33.28a1.5,1.5,0,1,1,1,0ZM41.4,15.58l10.69,2.9L45.5,20.25v1.53H37.31V20.25L36.17,20l5.29-1.11a.21.21,0,0,0,.17-.24s0,0,0,0h0a.22.22,0,0,1-.16.16L35.28,20v2.29a.45.45,0,0,1,.18.36.48.48,0,0,1-.1.28l.06.18.39,1.31H34.28l.38-1.31.06-.2a.41.41,0,0,1,0-.58l.06,0V20c0-.18,0-.41.06-.43h0l-4.16-1.09Z" transform="translate(0)"></path><path class="cls-1" d="M56.17,49.76A3.48,3.48,0,0,0,53,51.07a3.49,3.49,0,0,0,5.89.68,3.43,3.43,0,0,0-2.76-2Zm-4.74,2.5a3.43,3.43,0,0,0-3.34.62,3.47,3.47,0,0,0,5.63,1.89A3.46,3.46,0,0,0,51.43,52.26ZM57.24,11.6A3.45,3.45,0,0,0,60,13l.16.18a23.75,23.75,0,0,1-5.38,35.29,24.23,24.23,0,0,1-10,3.53v.68a24.42,24.42,0,0,0,16-40l-.18-.2A3.4,3.4,0,0,0,60,9.54a3.52,3.52,0,0,0-3.11-1.39,3.48,3.48,0,0,0,.46,3.38Zm.48,5.17A3.48,3.48,0,0,0,60.64,15a3.48,3.48,0,0,0-3-1.57,3.42,3.42,0,0,0-2.92,1.77A3.45,3.45,0,0,0,57.72,16.77Zm2.37,4.16a3.49,3.49,0,0,0,3.24-1,3.48,3.48,0,0,0-4.43-2.14,3.43,3.43,0,0,0-1.38.89A3.49,3.49,0,0,0,60.09,20.93Zm1.27,4.61a3.48,3.48,0,0,0,3.42-.19,3.58,3.58,0,0,0-2-2.81,3.49,3.49,0,0,0-3.4.2,3.53,3.53,0,0,0,1.93,2.8Zm.14,4.78a3.49,3.49,0,0,0,3.34.64,3.45,3.45,0,0,0-1.19-3.19,3.51,3.51,0,0,0-3.35-.65A3.48,3.48,0,0,0,61.5,30.32ZM60.5,35a3.41,3.41,0,0,0,3.09,1.42,3.47,3.47,0,0,0-3.5-4.8A3.49,3.49,0,0,0,60.48,35Zm-2.13,4.28A3.41,3.41,0,0,0,61,41.4a3.48,3.48,0,0,0-2.21-5.51A3.45,3.45,0,0,0,58.37,39.27Zm-3.1,3.64a3.45,3.45,0,0,0,2,2.71,3.48,3.48,0,0,0-.82-5.89,3.45,3.45,0,0,0-1.23,3.18Zm-3.9,2.79a3.43,3.43,0,0,0,1.35,3.12,3.47,3.47,0,0,0,1.65-4.64,3.53,3.53,0,0,0-1-1.27,3.52,3.52,0,0,0-2,2.79Zm-4.44,1.75a3.43,3.43,0,0,0,.54,3.36,3.47,3.47,0,0,0,2.74-4.07,3.38,3.38,0,0,0-.69-1.5A3.4,3.4,0,0,0,46.93,47.45ZM61.66,12.1a3.51,3.51,0,0,0,1.63,3,3.49,3.49,0,0,0,1.22-4.78,3.45,3.45,0,0,0-1.14-1.17A3.44,3.44,0,0,0,61.66,12.1Zm3,4.45a3.52,3.52,0,0,0,1,3.28A3.5,3.5,0,0,0,66.91,14a3.46,3.46,0,0,0-2.27,2.54Zm2,5a3.47,3.47,0,0,0,.28,3.4,3.49,3.49,0,0,0,3-3.87,3.57,3.57,0,0,0-.58-1.54,3.48,3.48,0,0,0-2.75,2Zm.9,5.27a3.5,3.5,0,0,0-.44,3.38A3.48,3.48,0,0,0,70.91,27a3.53,3.53,0,0,0-.23-1.61A3.54,3.54,0,0,0,67.56,26.82Zm-.22,5.35a3.49,3.49,0,0,0-1.12,3.22,3.49,3.49,0,0,0,4.36-2.29,3.6,3.6,0,0,0,.1-1.63A3.47,3.47,0,0,0,67.34,32.17ZM66,37.36a3.49,3.49,0,0,0-1.79,2.91A3.49,3.49,0,0,0,69,38.94a3.54,3.54,0,0,0,.44-1.58A3.37,3.37,0,0,0,66,37.36Zm-2.38,4.8a3.5,3.5,0,0,0-2.35,2.48,3.5,3.5,0,0,0,3.34.7A3.56,3.56,0,0,0,67,42.87,3.45,3.45,0,0,0,63.66,42.16Zm-3.31,4.21a3.5,3.5,0,0,0-2.82,1.93,3.48,3.48,0,0,0,3.12,1.38,3.53,3.53,0,0,0,2.81-1.93A3.45,3.45,0,0,0,60.35,46.37Z" transform="translate(0)"></path><path class="cls-1" d="M31.36,52.26a3.47,3.47,0,0,1,3.36.62,3.48,3.48,0,0,1-4.17,2.62,3.59,3.59,0,0,1-1.46-.73A3.49,3.49,0,0,1,31.36,52.26ZM25.57,11.6A3.43,3.43,0,0,1,22.84,13l-.16.18A23.72,23.72,0,0,0,25.55,46.6a23.39,23.39,0,0,0,2.54,1.87,24,24,0,0,0,10,3.53v.68a24.41,24.41,0,0,1-16-40l.17-.2a3.47,3.47,0,0,1,.58-2.94A3.52,3.52,0,0,1,26,8.15a3.45,3.45,0,0,1-.44,3.38Zm-.5,5.17A3.49,3.49,0,0,1,22.15,15a3.5,3.5,0,0,1,6,.2,3.48,3.48,0,0,1-3,1.57Zm-2.35,4.16a3.52,3.52,0,0,1-3.26-1,3.48,3.48,0,0,1,4.43-2.14,3.43,3.43,0,0,1,1.38.89A3.48,3.48,0,0,1,22.72,20.93Zm-1.29,4.61a3.44,3.44,0,0,1-3.4-.19A3.48,3.48,0,0,1,21.8,22.2a3.51,3.51,0,0,1,1.56.54A3.46,3.46,0,0,1,21.43,25.54Zm-.12,4.78A3.52,3.52,0,0,1,18,31a3.44,3.44,0,0,1,1.21-3.19,3.49,3.49,0,0,1,3.34-.65A3.53,3.53,0,0,1,21.31,30.32Zm1,4.67a3.48,3.48,0,0,1-3.1,1.42,3.48,3.48,0,0,1,.4-3.37,3.39,3.39,0,0,1,3.11-1.43A3.44,3.44,0,0,1,22.34,35Zm2.13,4.28a3.52,3.52,0,0,1-2.66,2.13A3.48,3.48,0,0,1,24,35.89,3.48,3.48,0,0,1,24.44,39.27Zm3.09,3.64a3.48,3.48,0,0,1-2.07,2.71,3.43,3.43,0,0,1-1.22-3.17,3.48,3.48,0,0,1,2.05-2.72A3.49,3.49,0,0,1,27.53,42.91Zm3.88,2.79a3.43,3.43,0,0,1-1.32,3.12,3.42,3.42,0,0,1-2-2.78,3.5,3.5,0,0,1,1.32-3.13A3.43,3.43,0,0,1,31.41,45.7Zm4.47,1.75a3.51,3.51,0,0,1-.55,3.36,3.47,3.47,0,0,1-2-5.57A3.5,3.5,0,0,1,35.88,47.45ZM21.15,12.1a3.53,3.53,0,0,1-1.63,3,3.49,3.49,0,0,1-1.22-4.78,3.45,3.45,0,0,1,1.14-1.17A3.51,3.51,0,0,1,21.15,12.1Zm-3,4.45a3.52,3.52,0,0,1-1,3.28A3.49,3.49,0,0,1,15.9,14a3.51,3.51,0,0,1,2.27,2.54Zm-2,5a3.45,3.45,0,0,1-.26,3.4,3.51,3.51,0,0,1-3.05-3.9,3.55,3.55,0,0,1,.56-1.51,3.48,3.48,0,0,1,2.75,2Zm-.88,5.27a3.49,3.49,0,0,1,.45,3.36A3.5,3.5,0,0,1,11.94,27a3.59,3.59,0,0,1,.24-1.59A3.54,3.54,0,0,1,15.3,26.8Zm.2,5.35a3.56,3.56,0,0,1,1.15,3.22,3.5,3.5,0,0,1-4.38-2.3,3.56,3.56,0,0,1-.11-1.62A3.47,3.47,0,0,1,15.47,32.17Zm1.33,5.19a3.52,3.52,0,0,1,1.77,2.91,3.49,3.49,0,0,1-5.19-2.91A3.42,3.42,0,0,1,16.8,37.36Zm2.37,4.8a3.43,3.43,0,0,1,2.33,2.48,3.48,3.48,0,0,1-4.91-.32,3.38,3.38,0,0,1-.76-1.45A3.45,3.45,0,0,1,19.17,42.16Zm3.32,4.21a3.41,3.41,0,0,1,2.79,1.93,3.48,3.48,0,0,1-5.91-.55A3.42,3.42,0,0,1,22.49,46.37Zm4.12,3.41a3.42,3.42,0,0,1,3.13,1.31,3.41,3.41,0,0,1-2.75,2,3.47,3.47,0,0,1-3.16-1.31A3.49,3.49,0,0,1,26.61,49.78Z" transform="translate(0)"></path><path class="cls-1" d="M41.4,0l1,3.2h3.36L43,5.2l1,3.19-2.71-2-2.7,2,1-3.19-2.72-2h3.36Zm-8,5.05-.66,2.07H30.6l1.75,1.26-.63,2.08,1.75-1.27,1.77,1.27-.72-2.08,1.77-1.26H34.12Zm15.93,0L50,7.12h2.17L50.44,8.38l.69,2.08L49.36,9.19l-1.75,1.27.66-2.08L46.52,7.12h2.2Z" transform="translate(0)"></path><path class="cls-1" d="M41.4,51A1.37,1.37,0,1,1,40,52.37h0A1.37,1.37,0,0,1,41.4,51Z" transform="translate(0)"></path><path class="cls-2" d="M3.29,75.68A3.81,3.81,0,0,1,.84,75,2.43,2.43,0,0,1,0,73V64.86H2.21v8.27a1,1,0,0,0,.28.78,1.23,1.23,0,0,0,.85.26,1.11,1.11,0,0,0,.82-.26.93.93,0,0,0,.3-.78V64.86H6.59V73a2.43,2.43,0,0,1-.87,2,3.85,3.85,0,0,1-2.46.68ZM9.65,64.86h2.77l2.15,6.4h0v-6.4h2V75.54H14.31l-2.65-7.8h0v7.8h-2Zm10.09,0H22V75.54H19.72Zm4.77,0h2.21l1.45,8.29h0l1.55-8.29h2L29.57,75.54H26.64Zm9.77,0h6v1.53h-3.8v2.82h3v1.53h-3V74h3.8v1.53h-6Zm8.78,0h3.28a4.15,4.15,0,0,1,2.5.61,2.21,2.21,0,0,1,.78,1.85V68a1.93,1.93,0,0,1-1.45,2.09h0a1.65,1.65,0,0,1,1.13.75,3,3,0,0,1,.34,1.5v1.87a4.15,4.15,0,0,0,.08.79,1.26,1.26,0,0,0,.2.56H47.63a1.94,1.94,0,0,1-.16-.48,5.75,5.75,0,0,1,0-.83v-2a1.27,1.27,0,0,0-.32-1,1.53,1.53,0,0,0-1.07-.3h-.76v4.58H43.06Zm3,4.59a1.69,1.69,0,0,0,1-.26,1.07,1.07,0,0,0,.34-.89v-.82a1.07,1.07,0,0,0-.28-.83,1.14,1.14,0,0,0-.85-.26h-1v3.06Zm9.45,6.23A3.64,3.64,0,0,1,53.12,75a2.39,2.39,0,0,1-.83-2v-.6h2.07v.73c0,.68.39,1,1.15,1a1.42,1.42,0,0,0,.87-.26,1,1,0,0,0,.28-.8,1.73,1.73,0,0,0-.41-1.19,6.46,6.46,0,0,0-1.48-1.23A7.46,7.46,0,0,1,52.88,69a2.72,2.72,0,0,1-.55-1.67,2.37,2.37,0,0,1,.85-2,3.65,3.65,0,0,1,2.43-.71,3.59,3.59,0,0,1,2.41.71,2.41,2.41,0,0,1,.81,2v.44H56.72V67.3a1,1,0,0,0-.28-.81,1.18,1.18,0,0,0-.83-.26c-.72,0-1.1.34-1.1,1a1.71,1.71,0,0,0,.42,1.08,7,7,0,0,0,1.49,1.23,7,7,0,0,1,1.91,1.65A2.86,2.86,0,0,1,58.87,73,2.5,2.5,0,0,1,58,75a3.94,3.94,0,0,1-2.49.68Zm6.11-10.82h2.21V75.54H61.64Zm7.1,1.53H66.43V64.86h6.81v1.53H70.93v9.15H68.72ZM77.93,71l-2.68-6.14h2.36l1.51,3.92h0l1.5-3.92h2.15L80.14,71v4.54H77.93Z" transform="translate(0)"></path><path class="cls-2" d="M20.57,79.84H19.9v-.52h2v.52h-.68v3.1h-.64Zm2.51-.52h.86l.67,3.62H24l-.12-.7h-.72l-.12.7h-.6Zm.7,2.43L23.48,80h0l-.28,1.79ZM26.48,83a1,1,0,0,1-.73-.24.9.9,0,0,1-.24-.66V80.19a.91.91,0,0,1,.21-.69,1.07,1.07,0,0,1,.73-.22,1,1,0,0,1,.7.22.93.93,0,0,1,.24.69v.3h-.6v-.35c0-.24-.1-.36-.32-.36s-.34.12-.34.36v2a.31.31,0,0,0,.28.34h.06c.22,0,.32-.12.32-.34v-.73h-.32v-.5h.92V82.1a.9.9,0,0,1-.24.66,1,1,0,0,1-.7.24Zm2-3.68h.64v3.12h1.07v.5h-1.7Zm2.67,0h.65v3.62h-.65Zm1.77,0h.8l.62,2.17h0V79.32h.56v3.62h-.64l-.79-2.63h0v2.63h-.56Zm3.16,0h1.75v.52H36.72v1h.89v.5h-.89v1.13h1.11V83H36.09ZM40.72,83a1,1,0,0,1-.7-.24.89.89,0,0,1-.3-.66V80.19A.93.93,0,0,1,40,79.5a1,1,0,0,1,.7-.22,1.07,1.07,0,0,1,.73.22.93.93,0,0,1,.24.69v.3H41v-.35c0-.24-.12-.36-.34-.36s-.32.12-.32.36v2c0,.22.1.34.32.34A.31.31,0,0,0,41,82.2v-.79h-.3v-.5h.93V82.1a.9.9,0,0,1-.24.66A1,1,0,0,1,40.72,83Zm3,0a1.09,1.09,0,0,1-.73-.24.86.86,0,0,1-.27-.66V80.19A1,1,0,0,1,43,79.5a1.35,1.35,0,0,1,1.47,0,1,1,0,0,1,.24.69V82.1a.9.9,0,0,1-.24.66,1,1,0,0,1-.74.24Zm0-.52c.24,0,.34-.12.34-.36v-2c0-.24-.1-.36-.34-.36s-.32.12-.32.36v2C43.4,82.36,43.5,82.48,43.72,82.48Zm2-3.16h1.75v.52H46.36v1h.89v.5h-.89v1.13h1.11V83H45.72ZM49.34,83a1,1,0,0,1-.71-.24.9.9,0,0,1-.24-.66v-.23H49v.27a.31.31,0,0,0,.28.34h.06a.31.31,0,0,0,.24-.08.4.4,0,0,0,.08-.28,1,1,0,0,0-.1-.41,2.38,2.38,0,0,0-.44-.4,3.77,3.77,0,0,1-.57-.56,1.21,1.21,0,0,1-.16-.58.93.93,0,0,1,.26-.67,1.11,1.11,0,0,1,.71-.22,1,1,0,0,1,.7.22.93.93,0,0,1,.24.69v.14h-.58v-.19c0-.12,0-.22-.08-.26a.28.28,0,0,0-.24-.1c-.2,0-.32.12-.32.36a.63.63,0,0,0,.12.37,2.38,2.38,0,0,0,.44.4,2.21,2.21,0,0,1,.56.58,1.1,1.1,0,0,1,.14.59.89.89,0,0,1-.24.68,1,1,0,0,1-.72.24Zm2.93-3.68h.65v1.49h.68V79.32h.64v3.62H53.6V81.31h-.68v1.63h-.65Zm3.1,0h1.75v.52H56v1h.89v.5H56v1.13h1.11V83H55.37Zm2.77,0h1a1.15,1.15,0,0,1,.74.2.86.86,0,0,1,.22.65v.22a.67.67,0,0,1-.42.7h0a.44.44,0,0,1,.32.24,1,1,0,0,1,.1.52v.63a1.13,1.13,0,0,0,0,.26.3.3,0,0,0,.06.18h-.66a.43.43,0,0,1,0-.16,1.31,1.31,0,0,1,0-.28v-.67a.35.35,0,0,0-.4-.44h-.22v1.55h-.65ZM59,80.87a.4.4,0,0,0,.28-.08.41.41,0,0,0,.1-.3v-.28a.43.43,0,0,0-.08-.29.31.31,0,0,0-.24-.08h-.3v1Zm2.13-1.55h1.75v.52H61.8v1h.92v.5h-.89v1.13h1.11V83H61.16Z" transform="translate(0)"></path></g></svg>