<svg xmlns="http://www.w3.org/2000/svg" width="155.21" height="77.56" viewBox="0 0 155.21 77.56"><defs><style>.cls-3{fill:#fff;fill-rule:evenodd;}</style></defs><title>icon2</title><g><path class="cls-3" d="M34,53.33l3.22-4.68c8.3-21.49,24.68-37.76,41.1-45.45-1.66,7.44-9.11,11.77-15,15a31.25,31.25,0,0,0-5.73,3.72c-.73.61,1.71,1.67.74,2.48-.67.56-4.92.87-5,1.38-.27,1.24,3.13.71,2,2.25-1.51,2-8.2,3.95-9.58,8.33,4.74-4.91,11.15-5.82,17.12-9.79a8.85,8.85,0,0,1-5.65-.5A17.53,17.53,0,0,0,68,20.72a18.65,18.65,0,0,1-9.1,1.72C69.89,19.34,76.65,11,82.83,0A85.9,85.9,0,0,0,34,53.33Z" transform="translate(0)"></path><path class="cls-3" d="M47.4,41.52h-2v14.6a9.43,9.43,0,0,1-2.25,6.74,8.12,8.12,0,0,1-6,2.29A8.08,8.08,0,0,1,31,62.74a9.79,9.79,0,0,1-2.22-6.81V41.52h-2v14.6a13.54,13.54,0,0,0,.75,4.68,9.23,9.23,0,0,0,2.09,3.37,8.68,8.68,0,0,0,3.23,2,12.09,12.09,0,0,0,4.22.69,12.35,12.35,0,0,0,4.26-.69,8.52,8.52,0,0,0,3.24-2,9.29,9.29,0,0,0,2.09-3.42,14.24,14.24,0,0,0,.75-4.84Z" transform="translate(0)"></path><path class="cls-3" d="M42.47,47.43c-5.41,1-6.7,8.73-11.3,8.57a7.27,7.27,0,0,0,1.5,4.9,5.45,5.45,0,0,0,4.2,1.55A5.54,5.54,0,0,0,41,61c1.21-1.24,1.48-3.21,1.48-4.85Z" transform="translate(0)"></path><path class="cls-3" d="M14.24,56.76a.31.31,0,0,1,.28.18L17.24,64c.2.52,0,.69-.14.76s-.25.14-.25.25.21.21.87.24c2.34.07,5,.07,5.31.07s.52-.07.52-.24-.18-.25-.42-.25a3.43,3.43,0,0,1-1.19-.17c-.48-.18-1.5-.63-2.65-3.38-1.86-4.41-6.6-16.59-7-17.74s-.52-1.11-.69-1.11-.35.17-.74,1.18L3.8,62c-.6,1.47-1.19,2.62-2.69,2.76H.41c-.27,0-.41.11-.41.25s.17.24.55.24c1.47,0,3-.1,3.35-.1s2,.1,2.76.1c.24,0,.52-.07.52-.24s-.1-.25-.42-.25H6.52c-.77,0-1.15-.28-1.15-.9A8.47,8.47,0,0,1,6,61.38L7.49,57a.37.37,0,0,1,.35-.28Zm-6-1.22c-.07,0-.14-.07-.07-.21l2.62-7.71c.17-.48.21-.48.38,0l2.76,7.71c0,.11,0,.21-.11.21Z" transform="translate(0)"></path><path class="cls-3" d="M63,44.21h3.42c3.52,0,4,.38,4.11,1.78a4,4,0,0,1,0,.49c0,.28.07.42.24.42s.25-.11.25-.42.07-2.58.07-3.56c0-.14-.07-.31-.21-.31a3.8,3.8,0,0,0-.67.14,16.21,16.21,0,0,1-2.51.17H56.24A18.17,18.17,0,0,1,54,42.75c-.63-.07-1.29-.39-1.53-.39s-.21.14-.32.56c-.21.94-.73,3.24-.69,3.45s0,.32.17.32.21,0,.31-.28a4.92,4.92,0,0,1,.53-1.08c.48-.74,1-1.08,3.2-1.12h4.4V56.66c0,2.61,0,5.12-.14,6.38s-.24,1.6-.91,1.71c-.25,0-.51,0-.76,0s-.39.14-.39.25.14.24.53.24c.9,0,3-.1,3.1-.1s2.2.1,4,.1c.34,0,.45-.1.45-.28s-.14-.21-.42-.21a6.28,6.28,0,0,1-1.3-.11c-.87-.21-.94-.69-1-1.53-.14-1.29-.17-3.77-.17-6.45V44.21Zm17.44,8c-.11,0-.21,0-.21-.17V45.1c0-.94.28-1.57,1.15-1.71a3.26,3.26,0,0,1,.7-.07c.21,0,.35-.07.35-.21s-.17-.24-.52-.24c-1,0-3,.1-3.14.1-.45,0-2.13-.1-3.63-.1-.35,0-.52,0-.52.24s.14.21.38.21a7.43,7.43,0,0,1,.94.07c1,.1,1.26.77,1.33,1.67s.07,1.85.07,6.46v5.16a53.39,53.39,0,0,1-.18,6.45c-.1.77-.24,1.43-.87,1.57a3.31,3.31,0,0,1-.83.1c-.32,0-.39.14-.39.25s.21.24.56.24c.91,0,3-.1,3.14-.1s2.23.1,4,.1c.31,0,.45-.1.45-.24s-.17-.25-.42-.25a10.36,10.36,0,0,1-1.25-.1c-.91-.11-1.08-.8-1.19-1.57a61.54,61.54,0,0,1-.09-6.37v-3.1c0-.18.07-.21.17-.21H93a.2.2,0,0,1,.21.19v3.12A59.1,59.1,0,0,1,93.07,63c-.11.8-.28,1.57-.87,1.67a3.17,3.17,0,0,1-.81.07c-.27,0-.38.11-.38.21s.18.28.52.28c1,0,3-.1,3.11-.1s2.2.1,3.94.1c.35,0,.52-.07.52-.24s-.17-.25-.45-.25a8.25,8.25,0,0,1-1.22-.1c-.91-.11-1.08-.8-1.19-1.64-.14-1.26-.14-3.52-.14-6.38V45.08c0-.94.21-1.54,1.15-1.68a5.53,5.53,0,0,1,.7-.07c.28,0,.38-.14.38-.24s-.21-.24-.56-.24c-1,0-3,.1-3.14.1s-2.19-.1-3.66-.1c-.31,0-.49,0-.49.24s.18.24.42.24a8.5,8.5,0,0,1,.87.07c1.15.21,1.29.7,1.36,1.64s.07,1.75.07,6.35V52c0,.17-.1.17-.21.17ZM115,65.66a11.87,11.87,0,0,0,12.34-11.4c0-.24,0-.47,0-.71,0-7-5.27-11.12-12.17-11.12A11.76,11.76,0,0,0,103,53.73a2.44,2.44,0,0,0,0,.27c0,5.3,3.49,11.65,12,11.65Zm.87-1.19c-5.86,0-9.66-4.53-9.66-11.37,0-6.59,3.91-9.59,8.76-9.59s9.1,3.9,9.1,10.92c0,8.85-5.86,10-8.2,10Zm18.52-7.81c0,2.61,0,5.47-.14,6.73-.1.84-.31,1.22-.9,1.32a2.83,2.83,0,0,1-.77.07c-.21,0-.42.11-.42.21s.14.28.49.28c.94,0,2.48-.1,3-.1.14,0,2.1.1,3.91.1.35,0,.49-.1.49-.28s-.14-.21-.45-.21-.67,0-1-.07c-1.15-.14-1.25-.83-1.36-1.67-.17-1.26-.17-3.8-.17-6.59V56c0-.14,0-.17.17-.17h3.6a.51.51,0,0,1,.41.21c.6.73,2,2.62,3.35,4.29,1.82,2.34,2.86,3.91,4.33,4.53a7.78,7.78,0,0,0,3.17.42h2.44c.49,0,.63-.07.63-.24s-.1-.25-.38-.25a6.31,6.31,0,0,1-1.08-.07,5.79,5.79,0,0,1-3.7-2.12c-1.81-1.86-3.81-4.44-6.41-7.6,2.76-2.23,3.7-4.68,3.7-6.59a5.32,5.32,0,0,0-2.1-4.24,9.87,9.87,0,0,0-5.72-1.32c-1,0-3.35.1-3.67.1-.07,0-2.19-.1-3.69-.1-.32,0-.42.1-.42.24s.14.21.38.21a4.76,4.76,0,0,1,.84.07c1.08.21,1.32.73,1.39,1.67s.07,1.78.07,6.39v5.23Zm2.69-12.24a.32.32,0,0,1,.21-.32,9.6,9.6,0,0,1,2-.17c3.11,0,5.13,2.09,5.13,5.89,0,2.23-.7,3.77-1.75,4.43a4.12,4.12,0,0,1-2.33.52,9.12,9.12,0,0,1-3.11-.45c-.14-.07-.17-.24-.17-.42Z" transform="translate(0)"></path><path class="cls-3" d="M24,77.51a4.91,4.91,0,0,0,1.57-.2.31.31,0,0,0,.23-.25A8.63,8.63,0,0,0,26,76c0-.07,0-.14-.05-.14s-.09,0-.11.15a1.37,1.37,0,0,1-.33.72,2.07,2.07,0,0,1-1.52.41A3.13,3.13,0,0,1,20.84,74a2.7,2.7,0,0,1,.79-2.19,2.66,2.66,0,0,1,1.92-.57,3,3,0,0,1,1.76.5,1.16,1.16,0,0,1,.39.87c0,.13,0,.19.08.19s.07,0,.08-.19,0-.64,0-.92a3.62,3.62,0,0,1,.05-.49c0-.08,0-.09-.09-.09a8.46,8.46,0,0,1-.88-.11,8.17,8.17,0,0,0-1.31-.11,3.66,3.66,0,0,0-2.69.88,3.35,3.35,0,0,0-1,2.31A3.26,3.26,0,0,0,21,76.62a4.19,4.19,0,0,0,2.93.91ZM30,74.93v1.93c0,.36-.09.35-.26.38a.81.81,0,0,1-.22,0c-.06,0-.12,0-.12.06s0,.08.14.08h2c.1,0,.14,0,.14-.08s0-.06-.13-.06h-.29c-.33,0-.36-.24-.39-.48a17,17,0,0,1-.05-1.89v-.13h1.05a.14.14,0,0,1,.12.06c.17.2.57.74.95,1.22.52.67.82,1.12,1.24,1.3a2.33,2.33,0,0,0,.91.12h.7c.14,0,.18,0,.18-.07s0-.07-.11-.07h-.31a1.65,1.65,0,0,1-1.06-.61c-.51-.53-1.11-1.27-1.84-2.16a2.52,2.52,0,0,0,1.06-1.89,1.53,1.53,0,0,0-.6-1.22A2.86,2.86,0,0,0,31.47,71H29.41c-.09,0-.12,0-.12.07s0,.06.11.06h.24c.31,0,.38.2.4.47s0,.51,0,1.83v1.49Zm.77-3.5a.09.09,0,0,1,.06-.09,2.81,2.81,0,0,1,.58,0c.89,0,1.46.6,1.46,1.69a1.49,1.49,0,0,1-.49,1.27,1.12,1.12,0,0,1-.67.15,2.47,2.47,0,0,1-.89-.13.11.11,0,0,1,0-.12Zm7.76,3.5v1.51c0,.62-.14.75-.32.79H38a.08.08,0,0,0-.09.07h0s0,.07.14.07h3.12c.33,0,.4,0,.44-.22s.11-.8.11-.87,0-.15-.06-.15-.07,0-.09.14c-.08.37-.15.57-.45.66a3.17,3.17,0,0,1-.75.06,1.89,1.89,0,0,1-.75,0c-.21-.09-.26-.28-.28-.65V74.27a.07.07,0,0,1,.07-.07h1.19c.38,0,.44.17.48.3a1,1,0,0,1,0,.24c0,.07,0,.12.06.12s.06,0,.07-.1,0-.33,0-.61a2.85,2.85,0,0,1,.07-.53v-.06a.13.13,0,0,0-.11.08c0,.08-.23.14-.46.15H39.39c-.12,0-.06,0-.06-.1V71.44c0-.06,0-.08.05-.08h1.13c.5,0,.59.1.65.3a1,1,0,0,1,.08.34c0,.07,0,.11.07.11s.07-.06.07-.15v-.52c0-.15,0-.29.08-.44v-.07a.21.21,0,0,0-.11,0A1.74,1.74,0,0,1,41,71H38c-.1,0-.15,0-.15.08s.06.06.13.06h.24c.29,0,.36.19.38.47s0,.51,0,1.82V74.9Zm9.94,0a.1.1,0,0,1,.08,0l.79,2a.23.23,0,0,1,0,.22.07.07,0,0,0-.07.07.4.4,0,0,0,.25.07h1.52c.1,0,.15,0,.15-.07s-.05-.07-.12-.07a1,1,0,0,1-.34,0c-.14,0-.43-.18-.76-1-.53-1.25-1.88-4.73-2-5.06s-.15-.31-.2-.31-.1,0-.21.33l-2,5.26c-.17.42-.34.75-.77.79h-.19c-.08,0-.12,0-.12.07s0,.07.16.07h1.74c.07,0,.15,0,.15-.07s0-.07-.12-.07h-.07c-.22,0-.33-.08-.33-.26a2.54,2.54,0,0,1,.17-.71L46.57,75a.1.1,0,0,1,.1-.08Zm-1.71-.34v-.06l.75-2.21c0-.14.06-.14.11,0l.78,2.21v.06Zm8.93-3.25h1c1,0,1.14.11,1.18.51V72c0,.08,0,.12.07.12s.07,0,.07-.12V71s0-.09-.06-.09h-.19a4.33,4.33,0,0,1-.72,0H53.14a2.5,2.5,0,0,1-.44-.11c-.07,0-.06,0-.09.16s-.2.92-.19,1,0,.09,0,.09,0,0,.08-.08a1.77,1.77,0,0,1,.15-.31c.14-.21.28-.31.92-.32h1.26v5.39c0,.36-.07.46-.26.49h-.22c-.08,0-.11,0-.11.07s0,.07.15.07h2c.1,0,.13,0,.13-.08s0-.06-.12-.06a2.41,2.41,0,0,1-.38,0c-.25-.06-.27-.2-.3-.44s0-1.08,0-1.85V71.37Zm6.17,3.56c0,.61,0,1.21,0,1.82,0,.24-.06.44-.23.48h-.24c-.09,0-.13,0-.13.07s.07.07.16.07h2c.1,0,.14,0,.14-.07s0-.06-.11-.07h-.38c-.26-.06-.3-.17-.34-.46s0-1.06,0-1.83V71.62c0-.27,0-.44.34-.47h.18c.08,0,.11,0,.11-.07s0-.07-.15-.07H61.33c-.11,0-.15,0-.15.07s0,.06.11.07h.23c.21,0,.27.19.29.46s0,.51,0,1.83v1.49ZM69.24,77c.17.44.22.56.34.56s.13-.15.4-.7c.17-.34.58-1.28,1.11-2.51.45-1,.94-2.18,1-2.3.24-.58.36-.7.47-.78a.8.8,0,0,1,.43-.09c.07,0,.11,0,.11-.08S73.1,71,73,71H71.32c-.12,0-.15,0-.15.08s.06.06.13.06a1.71,1.71,0,0,1,.32,0,.15.15,0,0,1,.09.16,1.32,1.32,0,0,1-.08.33c-.18.6-1.33,3.49-1.83,4.6l-1.75-4.41a1.82,1.82,0,0,1-.16-.5.17.17,0,0,1,.09-.17h.31c.1,0,.14,0,.14-.08s0-.06-.16-.06H66.21c-.09,0-.16,0-.16.07s0,.07.12.07h.3c.36.07.43.18.63.65Zm7.18-2v1.51c0,.62-.14.75-.31.79h-.2a.08.08,0,0,0-.09.07h0a.18.18,0,0,0,.14.07h3.12c.33,0,.4,0,.44-.22s.11-.8.11-.87,0-.15-.06-.15-.07,0-.09.14c-.08.37-.15.57-.45.66a3.48,3.48,0,0,1-.79,0,1.81,1.81,0,0,1-.73-.09c-.21-.09-.26-.28-.28-.65V74.18a.07.07,0,0,1,.07-.07h1.2a.58.58,0,0,1,.48.3,1,1,0,0,1,0,.24c0,.07,0,.12.06.12s.06,0,.07-.1,0-.33,0-.61a2.85,2.85,0,0,1,.07-.53v-.06a.13.13,0,0,0-.11.08c0,.08-.23.14-.46.15H77.26c-.12,0-.06,0-.06-.1V71.36h1.14c.5,0,.59.1.65.3a1.14,1.14,0,0,1,.07.32c0,.07,0,.11.07.11s.07-.06.07-.15v-.52c0-.15,0-.29.08-.44v-.07a.36.36,0,0,0,0,.09,1.74,1.74,0,0,1-.39,0h-3c-.1,0-.15,0-.15.08s.06.06.13.06h.24c.28,0,.35.19.37.47s0,.51,0,1.82V75Zm12.22,1.75c.19.63.25.76.34.76s.16-.12.31-.51c.3-.76,1.51-3.77,1.83-4.55L92.83,77c.13.37.19.51.29.51s.15-.14.41-.84,1.19-3.5,1.58-4.58c.16-.45.26-.87.56-.94h.26c.08,0,.13,0,.13-.08s0-.06-.12-.06H94.28c-.11,0-.15,0-.15.06s0,.08.13.08c.43,0,.48.11.48.25a1.25,1.25,0,0,1-.08.42c-.27,1-1.11,3.52-1.35,4.34l-1.76-4.69c-.12-.31-.17-.43-.24-.43s-.1,0-.24.42l-1.83,4.67c-.15-.48-1-3.44-1.13-4a6.6,6.6,0,0,1-.17-.77c0-.1,0-.18.1-.21a1.71,1.71,0,0,1,.32,0c.08,0,.14,0,.14-.08s0-.07-.14-.07H86.28q-.15,0-.15.06c0,.06.07.08.12.08a2.16,2.16,0,0,1,.36,0c.28.08.35.23.49.67l1.54,4.92Zm10.88-1.82v1.93c0,.36-.09.35-.26.38a.81.81,0,0,1-.22,0c-.06,0-.12,0-.12.06s0,.08.14.08h2c.1,0,.14,0,.14-.08s0-.06-.13-.06h-.29c-.32,0-.35-.24-.38-.48q0-.95,0-1.89v-.13h1a.14.14,0,0,1,.12.06c.17.2.57.74,1,1.22.52.67.82,1.12,1.24,1.3a2.28,2.28,0,0,0,.9.12h.7c.14,0,.18,0,.18-.07s0-.07-.11-.07h-.31a1.62,1.62,0,0,1-1-.61c-.51-.53-1.11-1.27-1.84-2.16a2.48,2.48,0,0,0,1-2,1.53,1.53,0,0,0-.6-1.22A2.94,2.94,0,0,0,101,71H98.94c-.09,0-.12,0-.12.07s0,.06.11.06h.24c.31,0,.38.2.4.47s0,.51,0,1.83v1.49Zm.77-3.5a.09.09,0,0,1,.06-.09,2.71,2.71,0,0,1,.57,0c.89,0,1.47.6,1.47,1.69a1.43,1.43,0,0,1-.5,1.27,1.12,1.12,0,0,1-.67.15,2.38,2.38,0,0,1-.88-.13.13.13,0,0,1,0-.12V71.43Zm7.76,3.5c0,.61,0,1.21,0,1.82,0,.24-.06.44-.23.48h-.24c-.09,0-.13,0-.13.07s.07.07.16.07h2c.1,0,.14,0,.14-.07s0-.06-.11-.07h-.38c-.26-.06-.3-.17-.34-.46s0-1.06,0-1.83V71.62c0-.27,0-.44.34-.47h.18c.08,0,.11,0,.11-.07s0-.07-.15-.07h-1.8c-.11,0-.15,0-.15.07s0,.06.11.07h.23c.21,0,.27.19.29.46s0,.51,0,1.83v1.49Zm7.82-3.56h1c1,0,1.14.11,1.18.51V72c0,.08,0,.12.07.12s.07,0,.07-.12V71s0-.09-.06-.09h-.19a4.33,4.33,0,0,1-.72,0h-3.91a2.5,2.5,0,0,1-.44-.11c-.07,0-.06,0-.09.16s-.21.92-.2,1,0,.09,0,.09.06,0,.09-.08a1.77,1.77,0,0,1,.15-.31c.14-.21.28-.31.92-.32H115v5.39c0,.36-.07.46-.26.49h-.22c-.08,0-.11,0-.11.07s0,.07.15.07h2c.1,0,.13,0,.13-.08s0-.06-.12-.06a2.54,2.54,0,0,1-.39,0c-.24-.06-.26-.2-.29-.44s0-1.08,0-1.85V71.37ZM122,74.93v1.51c0,.62-.14.75-.32.79h-.2a.08.08,0,0,0-.09.07h0s0,.07.14.07h3.12c.33,0,.4,0,.44-.22s.11-.8.11-.87,0-.15-.06-.15-.07,0-.09.14c-.08.37-.15.57-.45.66a3.17,3.17,0,0,1-.75.06,1.81,1.81,0,0,1-.73-.09c-.21-.09-.26-.28-.28-.65V74.17a.07.07,0,0,1,.07-.07h1.19c.38,0,.44.17.48.3a1,1,0,0,1,0,.24c0,.07,0,.12.06.12s.06,0,.07-.1,0-.33,0-.61a2.85,2.85,0,0,1,.07-.53v-.06a.13.13,0,0,0-.11.08c0,.08-.23.14-.46.15s-1.22,0-1.34,0-.06,0-.06-.1V71.36H124c.49,0,.58.1.64.3a1.14,1.14,0,0,1,.07.32c0,.07,0,.11.07.11s.07-.06.07-.15v-.52c0-.15,0-.29.08-.44v-.07h-.11a1.74,1.74,0,0,1-.39,0h-3c-.1,0-.15,0-.15.08s.06.06.13.06h.24c.29,0,.36.19.38.47s0,.51,0,1.82v1.49Zm7.27,0v1.93c0,.36-.09.35-.26.38a.81.81,0,0,1-.22,0c-.06,0-.12,0-.12.06s0,.08.14.08h2c.1,0,.14,0,.14-.08s0-.06-.13-.06h-.29c-.33,0-.36-.24-.39-.48q0-.95,0-1.89v-.13h1a.14.14,0,0,1,.12.06c.17.2.57.74,1,1.22.52.67.82,1.12,1.24,1.3a2.33,2.33,0,0,0,.91.12h.7c.14,0,.18,0,.18-.07s0-.07-.11-.07h-.31a1.65,1.65,0,0,1-1.06-.61c-.51-.53-1.11-1.27-1.84-2.16a2.52,2.52,0,0,0,1.06-1.89,1.53,1.53,0,0,0-.6-1.22,2.89,2.89,0,0,0-1.63-.37h-2.11c-.09,0-.12,0-.12.07s0,.06.11.06H129c.31,0,.38.2.4.47s0,.51,0,1.83V75Zm.77-3.5a.09.09,0,0,1,.06-.09,2.81,2.81,0,0,1,.58,0c.89,0,1.46.6,1.46,1.69a1.49,1.49,0,0,1-.49,1.27,1.12,1.12,0,0,1-.67.15,2.47,2.47,0,0,1-.89-.13.13.13,0,0,1,0-.12Z" transform="translate(0)"></path></g></svg>